<?xml version="1.0" encoding="UTF-8" standalone="no"?>
<!DOCTYPE svg PUBLIC "-//W3C//DTD SVG 1.1//EN"
 "http://www.w3.org/Graphics/SVG/1.1/DTD/svg11.dtd">
<!-- Generated by graphviz version 2.40.1 (20161225.0304)
 -->
<!-- Title: G Pages: 1 -->
<svg width="2152pt" height="1364pt"
 viewBox="0.00 0.00 2151.58 1363.78" xmlns="http://www.w3.org/2000/svg" xmlns:xlink="http://www.w3.org/1999/xlink">
<g id="graph0" class="graph" transform="scale(1 1) rotate(0) translate(7.992 1355.792)">
<title>G</title>
<polygon fill="#eeeeff" stroke="transparent" points="-7.992,7.992 -7.992,-1355.792 2143.592,-1355.792 2143.592,7.992 -7.992,7.992"/>
<!-- ../package.json -->
<g id="node1" class="node">
<title>../package.json</title>
<polygon fill="none" stroke="#0c821d" stroke-width="4" points="124,-1195.2 0,-1195.2 0,-1071.2 124,-1071.2 124,-1195.2"/>
<text text-anchor="middle" x="62" y="-1130.8" font-family="Fira Code" font-size="12.00" fill="#0c821d">../package.json</text>
</g>
<!-- anchor.js -->
<g id="node2" class="node">
<title>anchor.js</title>
<polygon fill="none" stroke="#242424" stroke-width="4" points="1312.3002,-956.1002 1231.6998,-956.1002 1231.6998,-875.4998 1312.3002,-875.4998 1312.3002,-956.1002"/>
<text text-anchor="middle" x="1272" y="-913.4" font-family="Fira Code" font-size="12.00" fill="#242424">anchor.js</text>
</g>
<!-- f&#45;utility/f&#45;utility.js -->
<g id="node3" class="node">
<title>f&#45;utility/f&#45;utility.js</title>
<polygon fill="none" stroke="#0c821d" stroke-width="4" points="1319.4005,-174.6005 1144.5995,-174.6005 1144.5995,.2005 1319.4005,.2005 1319.4005,-174.6005"/>
<text text-anchor="middle" x="1232" y="-84.8" font-family="Fira Code" font-size="12.00" fill="#0c821d">f&#45;utility/f&#45;utility.js</text>
</g>
<!-- anchor.js&#45;&gt;f&#45;utility/f&#45;utility.js -->
<g id="edge1" class="edge">
<title>anchor.js&#45;&gt;f&#45;utility/f&#45;utility.js</title>
<path fill="none" stroke="#242424" d="M1271.9109,-875.3345C1271.576,-798.0635 1270.0292,-624.1754 1263,-478 1258.1916,-378.0078 1253.9793,-353.1892 1246,-253.4 1244.2287,-231.2478 1242.2612,-207.4406 1240.3743,-184.9616"/>
<polygon fill="#242424" stroke="#242424" points="1243.8403,-184.4089 1239.514,-174.7376 1236.8649,-184.9959 1243.8403,-184.4089"/>
</g>
<!-- assertions/reject&#45;non&#45;functions.js -->
<g id="node4" class="node">
<title>assertions/reject&#45;non&#45;functions.js</title>
<polygon fill="none" stroke="#242424" stroke-width="4" points="963.3001,-749.5001 702.6999,-749.5001 702.6999,-488.8999 963.3001,-488.8999 963.3001,-749.5001"/>
<text text-anchor="middle" x="833" y="-616.8" font-family="Fira Code" font-size="12.00" fill="#242424">assertions/reject&#45;non&#45;functions.js</text>
</g>
<!-- anchor.js&#45;&gt;assertions/reject&#45;non&#45;functions.js -->
<g id="edge2" class="edge">
<title>anchor.js&#45;&gt;assertions/reject&#45;non&#45;functions.js</title>
<path fill="none" stroke="#242424" d="M1231.3417,-899.6238C1171.3947,-874.7284 1057.199,-823.2532 972,-760.4 969.9412,-758.8812 967.8847,-757.3314 965.8321,-755.7538"/>
<polygon fill="#242424" stroke="#242424" points="967.9596,-752.9742 957.9378,-749.5372 963.6288,-758.4738 967.9596,-752.9742"/>
</g>
<!-- errors/expect&#45;function&#45;props.js -->
<g id="node5" class="node">
<title>errors/expect&#45;function&#45;props.js</title>
<polygon fill="none" stroke="#242424" stroke-width="4" points="1220.7001,-738.9001 981.2999,-738.9001 981.2999,-499.4999 1220.7001,-499.4999 1220.7001,-738.9001"/>
<text text-anchor="middle" x="1101" y="-616.8" font-family="Fira Code" font-size="12.00" fill="#242424">errors/expect&#45;function&#45;props.js</text>
</g>
<!-- anchor.js&#45;&gt;errors/expect&#45;function&#45;props.js -->
<g id="edge3" class="edge">
<title>anchor.js&#45;&gt;errors/expect&#45;function&#45;props.js</title>
<path fill="none" stroke="#242424" d="M1248.7602,-875.4905C1229.7152,-842.4568 1201.6684,-793.8096 1175.1136,-747.7502"/>
<polygon fill="#242424" stroke="#242424" points="1178.0276,-745.797 1170.0007,-738.8818 1171.9632,-749.2933 1178.0276,-745.797"/>
</g>
<!-- future/guided&#45;left.js -->
<g id="node6" class="node">
<title>future/guided&#45;left.js</title>
<polygon fill="none" stroke="#242424" stroke-width="4" points="1767.7001,-702.9001 1600.2999,-702.9001 1600.2999,-535.4999 1767.7001,-535.4999 1767.7001,-702.9001"/>
<text text-anchor="middle" x="1684" y="-616.8" font-family="Fira Code" font-size="12.00" fill="#242424">future/guided&#45;left.js</text>
</g>
<!-- anchor.js&#45;&gt;future/guided&#45;left.js -->
<g id="edge4" class="edge">
<title>anchor.js&#45;&gt;future/guided&#45;left.js</title>
<path fill="none" stroke="#242424" d="M1312.5069,-903.8443C1377.2639,-883.1498 1505.4979,-835.5186 1591,-760.4 1606.8238,-746.4978 1621.0837,-729.2952 1633.4132,-711.7347"/>
<polygon fill="#242424" stroke="#242424" points="1636.5615,-713.3306 1639.3091,-703.0982 1630.7802,-709.3838 1636.5615,-713.3306"/>
</g>
<!-- future/guided&#45;right.js -->
<g id="node7" class="node">
<title>future/guided&#45;right.js</title>
<polygon fill="none" stroke="#242424" stroke-width="4" points="1582.4005,-706.6005 1407.5995,-706.6005 1407.5995,-531.7995 1582.4005,-531.7995 1582.4005,-706.6005"/>
<text text-anchor="middle" x="1495" y="-616.8" font-family="Fira Code" font-size="12.00" fill="#242424">future/guided&#45;right.js</text>
</g>
<!-- anchor.js&#45;&gt;future/guided&#45;right.js -->
<g id="edge5" class="edge">
<title>anchor.js&#45;&gt;future/guided&#45;right.js</title>
<path fill="none" stroke="#242424" d="M1302.3069,-875.4905C1333.1734,-834.4366 1382.1713,-769.2673 1423.0324,-714.9201"/>
<polygon fill="#242424" stroke="#242424" points="1426.0453,-716.7369 1429.2573,-706.6407 1420.4503,-712.5302 1426.0453,-716.7369"/>
</g>
<!-- assertions/reject&#45;non&#45;functions.js&#45;&gt;f&#45;utility/f&#45;utility.js -->
<g id="edge11" class="edge">
<title>assertions/reject&#45;non&#45;functions.js&#45;&gt;f&#45;utility/f&#45;utility.js</title>
<path fill="none" stroke="#242424" d="M930.8618,-488.7176C1001.8282,-394.0957 1096.2069,-268.2575 1160.2577,-182.8564"/>
<polygon fill="#242424" stroke="#242424" points="1163.1597,-184.8204 1166.3597,-174.7204 1157.5597,-180.6204 1163.1597,-184.8204"/>
</g>
<!-- errors/expect&#45;function&#45;props.js&#45;&gt;f&#45;utility/f&#45;utility.js -->
<g id="edge12" class="edge">
<title>errors/expect&#45;function&#45;props.js&#45;&gt;f&#45;utility/f&#45;utility.js</title>
<path fill="none" stroke="#242424" d="M1130.4806,-499.4773C1153.8975,-404.3795 1186.2286,-273.0808 1208.0619,-184.4142"/>
<polygon fill="#242424" stroke="#242424" points="1211.4795,-185.1733 1210.4721,-174.6265 1204.6825,-183.4996 1211.4795,-185.1733"/>
</g>
<!-- fluture/index.js -->
<g id="node12" class="node">
<title>fluture/index.js</title>
<polygon fill="none" stroke="#0c821d" stroke-width="4" points="1801.7002,-152.9002 1670.2998,-152.9002 1670.2998,-21.4998 1801.7002,-21.4998 1801.7002,-152.9002"/>
<text text-anchor="middle" x="1736" y="-84.8" font-family="Fira Code" font-size="12.00" fill="#0c821d">fluture/index.js</text>
</g>
<!-- future/guided&#45;left.js&#45;&gt;fluture/index.js -->
<g id="edge15" class="edge">
<title>future/guided&#45;left.js&#45;&gt;fluture/index.js</title>
<path fill="none" stroke="#242424" d="M1715.3387,-535.543C1728.9184,-494.9516 1743.2397,-445.1012 1750,-399 1759.3889,-334.9736 1752.7183,-318.054 1750,-253.4 1748.7596,-223.8974 1746.2859,-191.5267 1743.7583,-163.2544"/>
<polygon fill="#242424" stroke="#242424" points="1747.2203,-162.6776 1742.8268,-153.0367 1740.2492,-163.3131 1747.2203,-162.6776"/>
</g>
<!-- future/guided.js -->
<g id="node15" class="node">
<title>future/guided.js</title>
<polygon fill="none" stroke="#242424" stroke-width="4" points="1565.7002,-391.9002 1434.2998,-391.9002 1434.2998,-260.4998 1565.7002,-260.4998 1565.7002,-391.9002"/>
<text text-anchor="middle" x="1500" y="-323.8" font-family="Fira Code" font-size="12.00" fill="#242424">future/guided.js</text>
</g>
<!-- future/guided&#45;left.js&#45;&gt;future/guided.js -->
<g id="edge16" class="edge">
<title>future/guided&#45;left.js&#45;&gt;future/guided.js</title>
<path fill="none" stroke="#242424" d="M1631.273,-535.238C1604.6036,-492.7699 1572.5138,-441.6703 1546.7374,-400.6243"/>
<polygon fill="#242424" stroke="#242424" points="1549.6193,-398.632 1541.3371,-392.0248 1543.6913,-402.3548 1549.6193,-398.632"/>
</g>
<!-- future/guided&#45;right.js&#45;&gt;fluture/index.js -->
<g id="edge17" class="edge">
<title>future/guided&#45;right.js&#45;&gt;fluture/index.js</title>
<path fill="none" stroke="#242424" d="M1546.0621,-531.868C1559.3299,-512.9225 1574.5638,-493.8379 1591,-478 1638.5958,-432.1368 1683.2547,-455.8335 1717,-399 1739.7885,-360.6198 1741.1264,-242.6814 1739.1774,-163.366"/>
<polygon fill="#242424" stroke="#242424" points="1742.6643,-162.8293 1738.8966,-152.927 1735.6668,-163.0175 1742.6643,-162.8293"/>
</g>
<!-- future/guided&#45;right.js&#45;&gt;future/guided.js -->
<g id="edge18" class="edge">
<title>future/guided&#45;right.js&#45;&gt;future/guided.js</title>
<path fill="none" stroke="#242424" d="M1496.4934,-531.6872C1497.1975,-490.4242 1498.0296,-441.6663 1498.7064,-402.0026"/>
<polygon fill="#242424" stroke="#242424" points="1502.2083,-401.9206 1498.8795,-391.8623 1495.2093,-401.8011 1502.2083,-401.9206"/>
</g>
<!-- assertions/all&#45;props&#45;are&#45;functions.js -->
<g id="node8" class="node">
<title>assertions/all&#45;props&#45;are&#45;functions.js</title>
<polygon fill="none" stroke="#242424" stroke-width="4" points="684.4003,-760.6003 401.5997,-760.6003 401.5997,-477.7997 684.4003,-477.7997 684.4003,-760.6003"/>
<text text-anchor="middle" x="543" y="-616.8" font-family="Fira Code" font-size="12.00" fill="#242424">assertions/all&#45;props&#45;are&#45;functions.js</text>
</g>
<!-- assertions/all&#45;props&#45;are&#45;functions.js&#45;&gt;f&#45;utility/f&#45;utility.js -->
<g id="edge6" class="edge">
<title>assertions/all&#45;props&#45;are&#45;functions.js&#45;&gt;f&#45;utility/f&#45;utility.js</title>
<path fill="none" stroke="#242424" d="M684.4024,-486.0193C687.6149,-483.3038 690.8168,-480.6274 694,-478 842.8135,-355.1671 1026.649,-226.1366 1136.3356,-151.3644"/>
<polygon fill="#242424" stroke="#242424" points="1138.459,-154.153 1144.7554,-145.6321 1134.5196,-148.3667 1138.459,-154.153"/>
</g>
<!-- assertions/index.js -->
<g id="node9" class="node">
<title>assertions/index.js</title>
<polygon fill="none" stroke="#242424" stroke-width="4" points="619.3001,-992.1001 466.6999,-992.1001 466.6999,-839.4999 619.3001,-839.4999 619.3001,-992.1001"/>
<text text-anchor="middle" x="543" y="-913.4" font-family="Fira Code" font-size="12.00" fill="#242424">assertions/index.js</text>
</g>
<!-- assertions/index.js&#45;&gt;assertions/reject&#45;non&#45;functions.js -->
<g id="edge9" class="edge">
<title>assertions/index.js&#45;&gt;assertions/reject&#45;non&#45;functions.js</title>
<path fill="none" stroke="#242424" d="M617.6822,-839.4181C642.3586,-814.1801 670.6201,-785.2755 698.3722,-756.8917"/>
<polygon fill="#242424" stroke="#242424" points="700.9259,-759.2864 705.4144,-749.6893 695.9207,-754.3926 700.9259,-759.2864"/>
</g>
<!-- assertions/index.js&#45;&gt;assertions/all&#45;props&#45;are&#45;functions.js -->
<g id="edge7" class="edge">
<title>assertions/index.js&#45;&gt;assertions/all&#45;props&#45;are&#45;functions.js</title>
<path fill="none" stroke="#242424" d="M543,-839.4181C543,-818.3169 543,-794.6526 543,-770.8726"/>
<polygon fill="#242424" stroke="#242424" points="546.5001,-770.6812 543,-760.6813 539.5001,-770.6813 546.5001,-770.6812"/>
</g>
<!-- assertions/judge&#45;object.js -->
<g id="node10" class="node">
<title>assertions/judge&#45;object.js</title>
<polygon fill="none" stroke="#242424" stroke-width="4" points="383.7001,-720.9001 180.2999,-720.9001 180.2999,-517.4999 383.7001,-517.4999 383.7001,-720.9001"/>
<text text-anchor="middle" x="282" y="-616.8" font-family="Fira Code" font-size="12.00" fill="#242424">assertions/judge&#45;object.js</text>
</g>
<!-- assertions/index.js&#45;&gt;assertions/judge&#45;object.js -->
<g id="edge8" class="edge">
<title>assertions/index.js&#45;&gt;assertions/judge&#45;object.js</title>
<path fill="none" stroke="#242424" d="M466.6448,-839.789C442.5374,-814.9791 416.1612,-786.9695 393,-760.4 384.1791,-750.281 375.1858,-739.5722 366.3277,-728.7582"/>
<polygon fill="#242424" stroke="#242424" points="368.9344,-726.4163 359.9059,-720.8722 363.5064,-730.8365 368.9344,-726.4163"/>
</g>
<!-- assertions/judge&#45;object.js&#45;&gt;f&#45;utility/f&#45;utility.js -->
<g id="edge10" class="edge">
<title>assertions/judge&#45;object.js&#45;&gt;f&#45;utility/f&#45;utility.js</title>
<path fill="none" stroke="#242424" d="M354.1965,-517.2564C366.3187,-503.2528 379.406,-489.6905 393,-478 622.3479,-280.7676 968.0756,-162.2836 1135.0049,-113.3843"/>
<polygon fill="#242424" stroke="#242424" points="1136.1413,-116.6988 1144.7656,-110.5447 1134.186,-109.9775 1136.1413,-116.6988"/>
</g>
<!-- future/assert.js -->
<g id="node11" class="node">
<title>future/assert.js</title>
<polygon fill="none" stroke="#242424" stroke-width="4" points="2135.7002,-391.9002 2004.2998,-391.9002 2004.2998,-260.4998 2135.7002,-260.4998 2135.7002,-391.9002"/>
<text text-anchor="middle" x="2070" y="-323.8" font-family="Fira Code" font-size="12.00" fill="#242424">future/assert.js</text>
</g>
<!-- future/assert.js&#45;&gt;fluture/index.js -->
<g id="edge13" class="edge">
<title>future/assert.js&#45;&gt;fluture/index.js</title>
<path fill="none" stroke="#242424" d="M2004.3509,-264.9782C1999.565,-260.9757 1994.7514,-257.0789 1990,-253.4 1932.0976,-208.5671 1862.215,-163.4355 1810.4192,-131.5395"/>
<polygon fill="#242424" stroke="#242424" points="1811.9712,-128.3855 1801.6172,-126.1393 1808.3106,-134.3521 1811.9712,-128.3855"/>
</g>
<!-- future/bimap.js -->
<g id="node13" class="node">
<title>future/bimap.js</title>
<polygon fill="none" stroke="#242424" stroke-width="4" points="1948,-681.2 1824,-681.2 1824,-557.2 1948,-557.2 1948,-681.2"/>
<text text-anchor="middle" x="1886" y="-616.8" font-family="Fira Code" font-size="12.00" fill="#242424">future/bimap.js</text>
</g>
<!-- entrust/entrust.js -->
<g id="node14" class="node">
<title>entrust/entrust.js</title>
<polygon fill="none" stroke="#0c821d" stroke-width="4" points="1947.6005,-398.8005 1802.3995,-398.8005 1802.3995,-253.5995 1947.6005,-253.5995 1947.6005,-398.8005"/>
<text text-anchor="middle" x="1875" y="-323.8" font-family="Fira Code" font-size="12.00" fill="#0c821d">entrust/entrust.js</text>
</g>
<!-- future/bimap.js&#45;&gt;entrust/entrust.js -->
<g id="edge14" class="edge">
<title>future/bimap.js&#45;&gt;entrust/entrust.js</title>
<path fill="none" stroke="#242424" d="M1883.6672,-557.0622C1882.0485,-513.9464 1879.8746,-456.0421 1878.109,-409.0114"/>
<polygon fill="#242424" stroke="#242424" points="1881.6001,-408.7062 1877.7273,-398.8445 1874.605,-408.9688 1881.6001,-408.7062"/>
</g>
<!-- future/guided.js&#45;&gt;f&#45;utility/f&#45;utility.js -->
<g id="edge19" class="edge">
<title>future/guided.js&#45;&gt;f&#45;utility/f&#45;utility.js</title>
<path fill="none" stroke="#242424" d="M1434.1469,-266.1365C1429.3664,-261.8185 1424.6132,-257.5378 1420,-253.4 1389.8041,-226.3162 1356.7039,-196.948 1326.8064,-170.5399"/>
<polygon fill="#242424" stroke="#242424" points="1329.0909,-167.888 1319.278,-163.893 1324.4578,-173.1353 1329.0909,-167.888"/>
</g>
<!-- future/guided.js&#45;&gt;fluture/index.js -->
<g id="edge20" class="edge">
<title>future/guided.js&#45;&gt;fluture/index.js</title>
<path fill="none" stroke="#242424" d="M1564.8002,-260.5761C1595.5006,-229.4854 1632.2775,-192.241 1663.8625,-160.2545"/>
<polygon fill="#242424" stroke="#242424" points="1666.399,-162.667 1670.9349,-153.0922 1661.4181,-157.7486 1666.399,-162.667"/>
</g>
<!-- future/index.js -->
<g id="node16" class="node">
<title>future/index.js</title>
<polygon fill="none" stroke="#242424" stroke-width="4" points="1651,-977.8 1527,-977.8 1527,-853.8 1651,-853.8 1651,-977.8"/>
<text text-anchor="middle" x="1589" y="-913.4" font-family="Fira Code" font-size="12.00" fill="#242424">future/index.js</text>
</g>
<!-- future/index.js&#45;&gt;f&#45;utility/f&#45;utility.js -->
<g id="edge21" class="edge">
<title>future/index.js&#45;&gt;f&#45;utility/f&#45;utility.js</title>
<path fill="none" stroke="#242424" d="M1526.7235,-883.977C1482.2934,-857.5197 1425.8435,-815.3445 1399,-760.4 1300.0578,-557.8809 1472.0889,-462.1185 1387,-253.4 1373.7147,-220.812 1350.8708,-190.7565 1326.7418,-165.4249"/>
<polygon fill="#242424" stroke="#242424" points="1329.053,-162.7817 1319.5667,-158.0635 1324.0402,-167.6676 1329.053,-162.7817"/>
</g>
<!-- future/index.js&#45;&gt;future/guided&#45;left.js -->
<g id="edge23" class="edge">
<title>future/index.js&#45;&gt;future/guided&#45;left.js</title>
<path fill="none" stroke="#242424" d="M1608.9151,-853.6229C1621.9949,-812.7865 1639.3452,-758.6171 1654.0721,-712.6381"/>
<polygon fill="#242424" stroke="#242424" points="1657.4552,-713.5498 1657.1723,-702.9588 1650.7888,-711.4146 1657.4552,-713.5498"/>
</g>
<!-- future/index.js&#45;&gt;future/guided&#45;right.js -->
<g id="edge24" class="edge">
<title>future/index.js&#45;&gt;future/guided&#45;right.js</title>
<path fill="none" stroke="#242424" d="M1569.2945,-853.6229C1556.7055,-813.9006 1540.1184,-761.5629 1525.8112,-716.4192"/>
<polygon fill="#242424" stroke="#242424" points="1529.0588,-715.0812 1522.7011,-706.6059 1522.3859,-717.196 1529.0588,-715.0812"/>
</g>
<!-- future/index.js&#45;&gt;future/bimap.js -->
<g id="edge22" class="edge">
<title>future/index.js&#45;&gt;future/bimap.js</title>
<path fill="none" stroke="#242424" d="M1651.1675,-882.7512C1699.0551,-854.9603 1764.5445,-811.618 1810,-760.4 1828.1882,-739.906 1843.625,-714.2985 1855.7375,-690.539"/>
<polygon fill="#242424" stroke="#242424" points="1858.8949,-692.0501 1860.2158,-681.5379 1852.6277,-688.9319 1858.8949,-692.0501"/>
</g>
<!-- future/index.js&#45;&gt;future/guided.js -->
<g id="edge25" class="edge">
<title>future/index.js&#45;&gt;future/guided.js</title>
<path fill="none" stroke="#242424" d="M1651.0131,-883.9963C1695.1783,-857.549 1751.1159,-815.3778 1777,-760.4 1803.7314,-703.6224 1812.3825,-529.8299 1777,-478 1722.6486,-398.3836 1656.0724,-451.1547 1575,-399 1574.4754,-398.6625 1573.9514,-398.321 1573.428,-397.9755"/>
<polygon fill="#242424" stroke="#242424" points="1575.2123,-394.9516 1565.018,-392.0657 1571.1875,-400.6789 1575.2123,-394.9516"/>
</g>
<!-- index.js -->
<g id="node17" class="node">
<title>index.js</title>
<polygon fill="none" stroke="#242424" stroke-width="4" points="1233.6011,-1347.6011 1160.3989,-1347.6011 1160.3989,-1274.3989 1233.6011,-1274.3989 1233.6011,-1347.6011"/>
<text text-anchor="middle" x="1197" y="-1308.6" font-family="Fira Code" font-size="12.00" fill="#242424">index.js</text>
</g>
<!-- index.js&#45;&gt;../package.json -->
<g id="edge27" class="edge">
<title>index.js&#45;&gt;../package.json</title>
<path fill="none" stroke="#242424" d="M1160.1774,-1309.7651C995.8183,-1303.8318 328.9585,-1275.1729 138,-1195.2 136.3803,-1194.5217 134.7677,-1193.7974 133.1644,-1193.0319"/>
<polygon fill="#242424" stroke="#242424" points="134.5723,-1189.8171 124.0968,-1188.2315 131.2971,-1196.0036 134.5723,-1189.8171"/>
</g>
<!-- index.js&#45;&gt;anchor.js -->
<g id="edge28" class="edge">
<title>index.js&#45;&gt;anchor.js</title>
<path fill="none" stroke="#242424" d="M1203.9885,-1274.1754C1217.4844,-1203.0608 1247.1496,-1046.7451 1262.4522,-966.1105"/>
<polygon fill="#242424" stroke="#242424" points="1265.9085,-966.6695 1264.3345,-956.1923 1259.0313,-965.3643 1265.9085,-966.6695"/>
</g>
<!-- index.js&#45;&gt;f&#45;utility/f&#45;utility.js -->
<g id="edge26" class="edge">
<title>index.js&#45;&gt;f&#45;utility/f&#45;utility.js</title>
<path fill="none" stroke="#242424" d="M1160.1148,-1305.4577C974.5575,-1276.5662 152,-1136.0703 152,-915.8 152,-915.8 152,-915.8 152,-619.2 152,-555.8788 137.4169,-531.6819 171,-478 266.6582,-325.0925 343.3141,-324.6698 509,-253.4 721.7384,-161.8906 992.3142,-116.9372 1134.5274,-98.2848"/>
<polygon fill="#242424" stroke="#242424" points="1135.0751,-101.7432 1144.5424,-96.987 1134.1755,-94.8012 1135.0751,-101.7432"/>
</g>
<!-- index.js&#45;&gt;future/index.js -->
<g id="edge29" class="edge">
<title>index.js&#45;&gt;future/index.js</title>
<path fill="none" stroke="#242424" d="M1233.7946,-1287.4948C1266.8729,-1265.5432 1315.961,-1230.8867 1354,-1195.2 1423.424,-1130.0693 1492.2719,-1045.1958 1537.3257,-986.1607"/>
<polygon fill="#242424" stroke="#242424" points="1540.2584,-988.0863 1543.5227,-978.0068 1534.6852,-983.8507 1540.2584,-988.0863"/>
</g>
<!-- safety&#45;net.js -->
<g id="node18" class="node">
<title>safety&#45;net.js</title>
<polygon fill="none" stroke="#242424" stroke-width="4" points="1188.6007,-1187.8007 1079.3993,-1187.8007 1079.3993,-1078.5993 1188.6007,-1078.5993 1188.6007,-1187.8007"/>
<text text-anchor="middle" x="1134" y="-1130.8" font-family="Fira Code" font-size="12.00" fill="#242424">safety&#45;net.js</text>
</g>
<!-- index.js&#45;&gt;safety&#45;net.js -->
<g id="edge30" class="edge">
<title>index.js&#45;&gt;safety&#45;net.js</title>
<path fill="none" stroke="#242424" d="M1183.9464,-1274.1597C1176.1166,-1252.0623 1165.939,-1223.339 1156.8157,-1197.5911"/>
<polygon fill="#242424" stroke="#242424" points="1160.0168,-1196.1455 1153.3779,-1187.8886 1153.4187,-1198.4834 1160.0168,-1196.1455"/>
</g>
<!-- tether.js -->
<g id="node19" class="node">
<title>tether.js</title>
<polygon fill="none" stroke="#242424" stroke-width="4" points="1378.3002,-366.5002 1297.6998,-366.5002 1297.6998,-285.8998 1378.3002,-285.8998 1378.3002,-366.5002"/>
<text text-anchor="middle" x="1338" y="-323.8" font-family="Fira Code" font-size="12.00" fill="#242424">tether.js</text>
</g>
<!-- index.js&#45;&gt;tether.js -->
<g id="edge31" class="edge">
<title>index.js&#45;&gt;tether.js</title>
<path fill="none" stroke="#242424" d="M1216.3866,-1274.0289C1245.685,-1215.9243 1300.0452,-1098.838 1321,-992.2 1365.3885,-766.3092 1351.0304,-489.0857 1342.4428,-376.8978"/>
<polygon fill="#242424" stroke="#242424" points="1345.9284,-376.5757 1341.6574,-366.8799 1338.9498,-377.1229 1345.9284,-376.5757"/>
</g>
<!-- safety&#45;net.js&#45;&gt;anchor.js -->
<g id="edge34" class="edge">
<title>safety&#45;net.js&#45;&gt;anchor.js</title>
<path fill="none" stroke="#242424" d="M1168.8232,-1078.3408C1190.9588,-1043.4693 1219.3724,-998.7075 1240.7759,-964.9893"/>
<polygon fill="#242424" stroke="#242424" points="1243.9321,-966.5479 1246.3364,-956.2294 1238.0222,-962.7964 1243.9321,-966.5479"/>
</g>
<!-- safety&#45;net.js&#45;&gt;f&#45;utility/f&#45;utility.js -->
<g id="edge32" class="edge">
<title>safety&#45;net.js&#45;&gt;f&#45;utility/f&#45;utility.js</title>
<path fill="none" stroke="#242424" d="M1152.6874,-1078.4593C1176.1773,-1006.5183 1215.2127,-875.7467 1230,-760.4 1243.8698,-652.2103 1238.5776,-343.9118 1234.6926,-184.8203"/>
<polygon fill="#242424" stroke="#242424" points="1238.1851,-184.4711 1234.4389,-174.5607 1231.1873,-184.6442 1238.1851,-184.4711"/>
</g>
<!-- safety&#45;net.js&#45;&gt;assertions/reject&#45;non&#45;functions.js -->
<g id="edge37" class="edge">
<title>safety&#45;net.js&#45;&gt;assertions/reject&#45;non&#45;functions.js</title>
<path fill="none" stroke="#242424" d="M1101.7877,-1078.193C1057.4601,-1002.4974 976.1482,-863.6457 914.5238,-758.4135"/>
<polygon fill="#242424" stroke="#242424" points="917.4482,-756.4809 909.3745,-749.6203 911.4077,-760.0183 917.4482,-756.4809"/>
</g>
<!-- safety&#45;net.js&#45;&gt;errors/expect&#45;function&#45;props.js -->
<g id="edge38" class="edge">
<title>safety&#45;net.js&#45;&gt;errors/expect&#45;function&#45;props.js</title>
<path fill="none" stroke="#242424" d="M1130.4684,-1078.193C1125.463,-1000.2298 1116.1562,-855.2699 1109.3366,-749.0493"/>
<polygon fill="#242424" stroke="#242424" points="1112.8183,-748.6496 1108.6847,-738.8944 1105.8326,-749.0981 1112.8183,-748.6496"/>
</g>
<!-- safety&#45;net.js&#45;&gt;assertions/all&#45;props&#45;are&#45;functions.js -->
<g id="edge35" class="edge">
<title>safety&#45;net.js&#45;&gt;assertions/all&#45;props&#45;are&#45;functions.js</title>
<path fill="none" stroke="#242424" d="M1079.1013,-1089.1783C1044.9108,-1061.5838 1000.1385,-1025.1252 961,-992.2 840.7454,-891.0359 810.7444,-865.5955 694,-760.4 693.3001,-759.7693 692.5986,-759.1367 691.8958,-758.5023"/>
<polygon fill="#242424" stroke="#242424" points="694.0783,-755.757 684.3157,-751.6409 689.3807,-760.9467 694.0783,-755.757"/>
</g>
<!-- safety&#45;net.js&#45;&gt;assertions/judge&#45;object.js -->
<g id="edge36" class="edge">
<title>safety&#45;net.js&#45;&gt;assertions/judge&#45;object.js</title>
<path fill="none" stroke="#242424" d="M1079.373,-1128.0734C936.3604,-1113.6953 555.3123,-1068.9445 458,-992.2 375.8472,-927.4109 330.1379,-815.064 306.0341,-730.5564"/>
<polygon fill="#242424" stroke="#242424" points="309.4024,-729.6049 303.3427,-720.9141 302.6601,-731.4869 309.4024,-729.6049"/>
</g>
<!-- safety&#45;net.js&#45;&gt;fluture/index.js -->
<g id="edge33" class="edge">
<title>safety&#45;net.js&#45;&gt;fluture/index.js</title>
<path fill="none" stroke="#242424" d="M1188.7439,-1130.199C1348.5241,-1118.0087 1812.0955,-1057.3076 1957,-760.4 2006.4154,-659.1484 2007.3205,-354.2049 1957,-253.4 1926.6596,-192.6202 1862.3378,-148.253 1810.8711,-120.7244"/>
<polygon fill="#242424" stroke="#242424" points="1812.2324,-117.4865 1801.7499,-115.9481 1808.9851,-123.6877 1812.2324,-117.4865"/>
</g>
<!-- tether.js&#45;&gt;f&#45;utility/f&#45;utility.js -->
<g id="edge41" class="edge">
<title>tether.js&#45;&gt;f&#45;utility/f&#45;utility.js</title>
<path fill="none" stroke="#242424" d="M1320.0185,-285.6569C1307.656,-257.7829 1290.6925,-219.5349 1274.9554,-184.0522"/>
<polygon fill="#242424" stroke="#242424" points="1278.0238,-182.3376 1270.77,-174.6154 1271.6249,-185.1757 1278.0238,-182.3376"/>
</g>
<!-- tether.js&#45;&gt;fluture/index.js -->
<g id="edge42" class="edge">
<title>tether.js&#45;&gt;fluture/index.js</title>
<path fill="none" stroke="#242424" d="M1378.6697,-289.2046C1392.8409,-277.129 1409.1662,-264.0885 1425,-253.4 1501.7748,-201.5735 1596.4387,-152.9509 1661.0246,-121.8498"/>
<polygon fill="#242424" stroke="#242424" points="1662.8247,-124.8684 1670.3297,-117.39 1659.7992,-118.556 1662.8247,-124.8684"/>
</g>
<!-- test&#45;helpers.js -->
<g id="node20" class="node">
<title>test&#45;helpers.js</title>
<polygon fill="none" stroke="#242424" stroke-width="4" points="1708,-388.2 1584,-388.2 1584,-264.2 1708,-264.2 1708,-388.2"/>
<text text-anchor="middle" x="1646" y="-323.8" font-family="Fira Code" font-size="12.00" fill="#242424">test&#45;helpers.js</text>
</g>
<!-- test&#45;helpers.js&#45;&gt;f&#45;utility/f&#45;utility.js -->
<g id="edge39" class="edge">
<title>test&#45;helpers.js&#45;&gt;f&#45;utility/f&#45;utility.js</title>
<path fill="none" stroke="#242424" d="M1588.5772,-264.1158C1584.1295,-260.3186 1579.5829,-256.7035 1575,-253.4 1498.3263,-198.1321 1400.4326,-152.7978 1328.8682,-123.5177"/>
<polygon fill="#242424" stroke="#242424" points="1329.9746,-120.1895 1319.3924,-119.6715 1327.3419,-126.6756 1329.9746,-120.1895"/>
</g>
<!-- test&#45;helpers.js&#45;&gt;fluture/index.js -->
<g id="edge40" class="edge">
<title>test&#45;helpers.js&#45;&gt;fluture/index.js</title>
<path fill="none" stroke="#242424" d="M1669.4115,-264.0295C1681.1202,-232.9362 1695.3845,-195.0567 1707.7028,-162.3449"/>
<polygon fill="#242424" stroke="#242424" points="1711.0408,-163.4121 1711.2895,-152.8202 1704.4898,-160.9452 1711.0408,-163.4121"/>
</g>
</g>
</svg>
