<?xml version="1.0" encoding="UTF-8" standalone="no"?>
<!DOCTYPE svg PUBLIC "-//W3C//DTD SVG 1.1//EN"
 "http://www.w3.org/Graphics/SVG/1.1/DTD/svg11.dtd">
<!-- Generated by graphviz version 2.40.1 (20161225.0304)
 -->
<!-- Title: G Pages: 1 -->
<svg width="2317pt" height="1393pt"
 viewBox="0.00 0.00 2316.58 1392.58" xmlns="http://www.w3.org/2000/svg" xmlns:xlink="http://www.w3.org/1999/xlink">
<g id="graph0" class="graph" transform="scale(1 1) rotate(0) translate(7.992 1384.592)">
<title>G</title>
<polygon fill="#eeeeff" stroke="transparent" points="-7.992,7.992 -7.992,-1384.592 2308.592,-1384.592 2308.592,7.992 -7.992,7.992"/>
<!-- ../package.json -->
<g id="node1" class="node">
<title>../package.json</title>
<polygon fill="none" stroke="#0c821d" stroke-width="4" points="124,-1224 0,-1224 0,-1100 124,-1100 124,-1224"/>
<text text-anchor="middle" x="62" y="-1159.6" font-family="Fira Code" font-size="12.00" fill="#0c821d">../package.json</text>
</g>
<!-- anchor.js -->
<g id="node2" class="node">
<title>anchor.js</title>
<polygon fill="none" stroke="#242424" stroke-width="4" points="1297.3002,-984.9002 1216.6998,-984.9002 1216.6998,-904.2998 1297.3002,-904.2998 1297.3002,-984.9002"/>
<text text-anchor="middle" x="1257" y="-942.2" font-family="Fira Code" font-size="12.00" fill="#242424">anchor.js</text>
</g>
<!-- f&#45;utility/f&#45;utility.js -->
<g id="node3" class="node">
<title>f&#45;utility/f&#45;utility.js</title>
<polygon fill="none" stroke="#0c821d" stroke-width="4" points="1292.4005,-189.0005 1117.5995,-189.0005 1117.5995,-14.1995 1292.4005,-14.1995 1292.4005,-189.0005"/>
<text text-anchor="middle" x="1205" y="-99.2" font-family="Fira Code" font-size="12.00" fill="#0c821d">f&#45;utility/f&#45;utility.js</text>
</g>
<!-- anchor.js&#45;&gt;f&#45;utility/f&#45;utility.js -->
<g id="edge1" class="edge">
<title>anchor.js&#45;&gt;f&#45;utility/f&#45;utility.js</title>
<path fill="none" stroke="#242424" d="M1261.9634,-903.9389C1273.6889,-799.7683 1299.4836,-515.1197 1263,-282.2 1258.6655,-254.5277 1250.8088,-225.3075 1242.2489,-198.6227"/>
<polygon fill="#242424" stroke="#242424" points="1245.5076,-197.3274 1239.0686,-188.9137 1238.8554,-199.5064 1245.5076,-197.3274"/>
</g>
<!-- assertions/reject&#45;non&#45;functions.js -->
<g id="node4" class="node">
<title>assertions/reject&#45;non&#45;functions.js</title>
<polygon fill="none" stroke="#242424" stroke-width="4" points="963.3001,-778.3001 702.6999,-778.3001 702.6999,-517.6999 963.3001,-517.6999 963.3001,-778.3001"/>
<text text-anchor="middle" x="833" y="-645.6" font-family="Fira Code" font-size="12.00" fill="#242424">assertions/reject&#45;non&#45;functions.js</text>
</g>
<!-- anchor.js&#45;&gt;assertions/reject&#45;non&#45;functions.js -->
<g id="edge2" class="edge">
<title>anchor.js&#45;&gt;assertions/reject&#45;non&#45;functions.js</title>
<path fill="none" stroke="#242424" d="M1216.537,-927.1521C1159.1878,-901.4296 1052.3125,-849.7768 972,-789.2 970.1591,-787.8115 968.3194,-786.3989 966.4819,-784.9644"/>
<polygon fill="#242424" stroke="#242424" points="968.4411,-782.0498 958.4439,-778.5415 964.0713,-787.5184 968.4411,-782.0498"/>
</g>
<!-- errors/expect&#45;function&#45;props.js -->
<g id="node5" class="node">
<title>errors/expect&#45;function&#45;props.js</title>
<polygon fill="none" stroke="#242424" stroke-width="4" points="1220.7001,-767.7001 981.2999,-767.7001 981.2999,-528.2999 1220.7001,-528.2999 1220.7001,-767.7001"/>
<text text-anchor="middle" x="1101" y="-645.6" font-family="Fira Code" font-size="12.00" fill="#242424">errors/expect&#45;function&#45;props.js</text>
</g>
<!-- anchor.js&#45;&gt;errors/expect&#45;function&#45;props.js -->
<g id="edge3" class="edge">
<title>anchor.js&#45;&gt;errors/expect&#45;function&#45;props.js</title>
<path fill="none" stroke="#242424" d="M1235.7988,-904.2905C1218.4244,-871.2568 1192.8378,-822.6096 1168.6124,-776.5502"/>
<polygon fill="#242424" stroke="#242424" points="1171.7007,-774.9031 1163.948,-767.6818 1165.5054,-778.1616 1171.7007,-774.9031"/>
</g>
<!-- future/guided&#45;left.js -->
<g id="node6" class="node">
<title>future/guided&#45;left.js</title>
<polygon fill="none" stroke="#242424" stroke-width="4" points="1788.7001,-731.7001 1621.2999,-731.7001 1621.2999,-564.2999 1788.7001,-564.2999 1788.7001,-731.7001"/>
<text text-anchor="middle" x="1705" y="-645.6" font-family="Fira Code" font-size="12.00" fill="#242424">future/guided&#45;left.js</text>
</g>
<!-- anchor.js&#45;&gt;future/guided&#45;left.js -->
<g id="edge4" class="edge">
<title>anchor.js&#45;&gt;future/guided&#45;left.js</title>
<path fill="none" stroke="#242424" d="M1297.4135,-930.3193C1360.3407,-906.9151 1483.8653,-856.2145 1574,-789.2 1593.4889,-774.7102 1612.4631,-757.0777 1629.6461,-739.2519"/>
<polygon fill="#242424" stroke="#242424" points="1632.5535,-741.2727 1636.8969,-731.609 1627.4752,-736.4549 1632.5535,-741.2727"/>
</g>
<!-- future/guided&#45;right.js -->
<g id="node7" class="node">
<title>future/guided&#45;right.js</title>
<polygon fill="none" stroke="#242424" stroke-width="4" points="1565.4005,-735.4005 1390.5995,-735.4005 1390.5995,-560.5995 1565.4005,-560.5995 1565.4005,-735.4005"/>
<text text-anchor="middle" x="1478" y="-645.6" font-family="Fira Code" font-size="12.00" fill="#242424">future/guided&#45;right.js</text>
</g>
<!-- anchor.js&#45;&gt;future/guided&#45;right.js -->
<g id="edge5" class="edge">
<title>anchor.js&#45;&gt;future/guided&#45;right.js</title>
<path fill="none" stroke="#242424" d="M1287.035,-904.2905C1317.6248,-863.2366 1366.1832,-798.0673 1406.6779,-743.7201"/>
<polygon fill="#242424" stroke="#242424" points="1409.6786,-745.5507 1412.847,-735.4407 1404.0655,-741.3682 1409.6786,-745.5507"/>
</g>
<!-- assertions/reject&#45;non&#45;functions.js&#45;&gt;f&#45;utility/f&#45;utility.js -->
<g id="edge11" class="edge">
<title>assertions/reject&#45;non&#45;functions.js&#45;&gt;f&#45;utility/f&#45;utility.js</title>
<path fill="none" stroke="#242424" d="M921.8669,-517.4708C988.91,-418.9967 1079.3566,-286.1471 1139.8038,-197.3613"/>
<polygon fill="#242424" stroke="#242424" points="1142.8234,-199.1452 1145.5581,-188.9093 1137.0371,-195.2058 1142.8234,-199.1452"/>
</g>
<!-- errors/expect&#45;function&#45;props.js&#45;&gt;f&#45;utility/f&#45;utility.js -->
<g id="edge12" class="edge">
<title>errors/expect&#45;function&#45;props.js&#45;&gt;f&#45;utility/f&#45;utility.js</title>
<path fill="none" stroke="#242424" d="M1123.8232,-528.0902C1142.6305,-429.2796 1168.9665,-290.9143 1186.483,-198.8857"/>
<polygon fill="#242424" stroke="#242424" points="1189.9302,-199.4927 1188.3618,-189.0146 1183.0536,-198.1838 1189.9302,-199.4927"/>
</g>
<!-- fluture/index.js -->
<g id="node12" class="node">
<title>fluture/index.js</title>
<polygon fill="none" stroke="#0c821d" stroke-width="4" points="1770.7002,-167.3002 1639.2998,-167.3002 1639.2998,-35.8998 1770.7002,-35.8998 1770.7002,-167.3002"/>
<text text-anchor="middle" x="1705" y="-99.2" font-family="Fira Code" font-size="12.00" fill="#0c821d">fluture/index.js</text>
</g>
<!-- future/guided&#45;left.js&#45;&gt;fluture/index.js -->
<g id="edge15" class="edge">
<title>future/guided&#45;left.js&#45;&gt;fluture/index.js</title>
<path fill="none" stroke="#242424" d="M1705,-564.1208C1705,-458.6999 1705,-279.2891 1705,-177.6798"/>
<polygon fill="#242424" stroke="#242424" points="1708.5001,-177.4924 1705,-167.4924 1701.5001,-177.4925 1708.5001,-177.4924"/>
</g>
<!-- future/guided.js -->
<g id="node15" class="node">
<title>future/guided.js</title>
<polygon fill="none" stroke="#242424" stroke-width="4" points="1658.7002,-420.7002 1527.2998,-420.7002 1527.2998,-289.2998 1658.7002,-289.2998 1658.7002,-420.7002"/>
<text text-anchor="middle" x="1593" y="-352.6" font-family="Fira Code" font-size="12.00" fill="#242424">future/guided.js</text>
</g>
<!-- future/guided&#45;left.js&#45;&gt;future/guided.js -->
<g id="edge16" class="edge">
<title>future/guided&#45;left.js&#45;&gt;future/guided.js</title>
<path fill="none" stroke="#242424" d="M1672.9053,-564.038C1656.7736,-521.8364 1637.3839,-471.1114 1621.7447,-430.1983"/>
<polygon fill="#242424" stroke="#242424" points="1625.0016,-428.9159 1618.1617,-420.8248 1618.463,-431.4154 1625.0016,-428.9159"/>
</g>
<!-- future/guided&#45;right.js&#45;&gt;fluture/index.js -->
<g id="edge17" class="edge">
<title>future/guided&#45;right.js&#45;&gt;fluture/index.js</title>
<path fill="none" stroke="#242424" d="M1480.7554,-560.5539C1484.8574,-468.224 1494.762,-329.5951 1518,-282.2 1543.52,-230.1507 1590.5029,-184.8694 1630.9888,-152.6665"/>
<polygon fill="#242424" stroke="#242424" points="1633.2742,-155.3223 1638.991,-146.4021 1628.9593,-149.8103 1633.2742,-155.3223"/>
</g>
<!-- future/guided&#45;right.js&#45;&gt;future/guided.js -->
<g id="edge18" class="edge">
<title>future/guided&#45;right.js&#45;&gt;future/guided.js</title>
<path fill="none" stroke="#242424" d="M1512.348,-560.4872C1528.6465,-518.9614 1547.9244,-469.8449 1563.5452,-430.0458"/>
<polygon fill="#242424" stroke="#242424" points="1566.8325,-431.2497 1567.2281,-420.6623 1560.3164,-428.6922 1566.8325,-431.2497"/>
</g>
<!-- assertions/all&#45;props&#45;are&#45;functions.js -->
<g id="node8" class="node">
<title>assertions/all&#45;props&#45;are&#45;functions.js</title>
<polygon fill="none" stroke="#242424" stroke-width="4" points="684.4003,-789.4003 401.5997,-789.4003 401.5997,-506.5997 684.4003,-506.5997 684.4003,-789.4003"/>
<text text-anchor="middle" x="543" y="-645.6" font-family="Fira Code" font-size="12.00" fill="#242424">assertions/all&#45;props&#45;are&#45;functions.js</text>
</g>
<!-- assertions/all&#45;props&#45;are&#45;functions.js&#45;&gt;f&#45;utility/f&#45;utility.js -->
<g id="edge6" class="edge">
<title>assertions/all&#45;props&#45;are&#45;functions.js&#45;&gt;f&#45;utility/f&#45;utility.js</title>
<path fill="none" stroke="#242424" d="M684.5561,-515.0015C687.7222,-512.231 690.873,-509.494 694,-506.8 834.866,-385.4394 1005.2854,-253.0382 1109.3739,-173.7024"/>
<polygon fill="#242424" stroke="#242424" points="1111.5373,-176.4542 1117.3723,-167.611 1107.2961,-170.8853 1111.5373,-176.4542"/>
</g>
<!-- assertions/index.js -->
<g id="node9" class="node">
<title>assertions/index.js</title>
<polygon fill="none" stroke="#242424" stroke-width="4" points="723.3001,-1020.9001 570.6999,-1020.9001 570.6999,-868.2999 723.3001,-868.2999 723.3001,-1020.9001"/>
<text text-anchor="middle" x="647" y="-942.2" font-family="Fira Code" font-size="12.00" fill="#242424">assertions/index.js</text>
</g>
<!-- assertions/index.js&#45;&gt;assertions/reject&#45;non&#45;functions.js -->
<g id="edge9" class="edge">
<title>assertions/index.js&#45;&gt;assertions/reject&#45;non&#45;functions.js</title>
<path fill="none" stroke="#242424" d="M694.8996,-868.2181C710.4583,-843.4079 728.2391,-815.0542 745.7472,-787.1354"/>
<polygon fill="#242424" stroke="#242424" points="748.8215,-788.8208 751.1692,-778.4893 742.8912,-785.1017 748.8215,-788.8208"/>
</g>
<!-- assertions/index.js&#45;&gt;assertions/all&#45;props&#45;are&#45;functions.js -->
<g id="edge7" class="edge">
<title>assertions/index.js&#45;&gt;assertions/all&#45;props&#45;are&#45;functions.js</title>
<path fill="none" stroke="#242424" d="M620.2174,-868.2181C612.7524,-846.9285 604.3726,-823.0299 595.9592,-799.0356"/>
<polygon fill="#242424" stroke="#242424" points="599.2209,-797.7598 592.6091,-789.4813 592.6152,-800.0761 599.2209,-797.7598"/>
</g>
<!-- assertions/judge&#45;object.js -->
<g id="node10" class="node">
<title>assertions/judge&#45;object.js</title>
<polygon fill="none" stroke="#242424" stroke-width="4" points="383.7001,-749.7001 180.2999,-749.7001 180.2999,-546.2999 383.7001,-546.2999 383.7001,-749.7001"/>
<text text-anchor="middle" x="282" y="-645.6" font-family="Fira Code" font-size="12.00" fill="#242424">assertions/judge&#45;object.js</text>
</g>
<!-- assertions/index.js&#45;&gt;assertions/judge&#45;object.js -->
<g id="edge8" class="edge">
<title>assertions/index.js&#45;&gt;assertions/judge&#45;object.js</title>
<path fill="none" stroke="#242424" d="M570.5512,-907.1155C517.4723,-878.9595 446.8913,-837.1203 393,-789.2 382.2083,-779.604 371.6885,-768.8589 361.6953,-757.6944"/>
<polygon fill="#242424" stroke="#242424" points="364.0899,-755.1166 354.8642,-749.9071 358.8276,-759.7327 364.0899,-755.1166"/>
</g>
<!-- assertions/judge&#45;object.js&#45;&gt;f&#45;utility/f&#45;utility.js -->
<g id="edge10" class="edge">
<title>assertions/judge&#45;object.js&#45;&gt;f&#45;utility/f&#45;utility.js</title>
<path fill="none" stroke="#242424" d="M354.2426,-546.1099C366.3584,-532.0988 379.4315,-518.5201 393,-506.8 615.8411,-314.315 946.1122,-186.9094 1108.1673,-132.1554"/>
<polygon fill="#242424" stroke="#242424" points="1109.2847,-135.4723 1117.6494,-128.9698 1107.0554,-128.8367 1109.2847,-135.4723"/>
</g>
<!-- future/assert.js -->
<g id="node11" class="node">
<title>future/assert.js</title>
<polygon fill="none" stroke="#242424" stroke-width="4" points="2118.7002,-420.7002 1987.2998,-420.7002 1987.2998,-289.2998 2118.7002,-289.2998 2118.7002,-420.7002"/>
<text text-anchor="middle" x="2053" y="-352.6" font-family="Fira Code" font-size="12.00" fill="#242424">future/assert.js</text>
</g>
<!-- future/assert.js&#45;&gt;fluture/index.js -->
<g id="edge13" class="edge">
<title>future/assert.js&#45;&gt;fluture/index.js</title>
<path fill="none" stroke="#242424" d="M1987.2933,-293.852C1982.5211,-289.8319 1977.7264,-285.9111 1973,-282.2 1910.1684,-232.8651 1834.3256,-182.542 1779.3811,-147.5911"/>
<polygon fill="#242424" stroke="#242424" points="1781.067,-144.5158 1770.7474,-142.1162 1777.3182,-150.4274 1781.067,-144.5158"/>
</g>
<!-- future/bimap.js -->
<g id="node13" class="node">
<title>future/bimap.js</title>
<polygon fill="none" stroke="#242424" stroke-width="4" points="1931,-710 1807,-710 1807,-586 1931,-586 1931,-710"/>
<text text-anchor="middle" x="1869" y="-645.6" font-family="Fira Code" font-size="12.00" fill="#242424">future/bimap.js</text>
</g>
<!-- entrust/entrust.js -->
<g id="node14" class="node">
<title>entrust/entrust.js</title>
<polygon fill="none" stroke="#0c821d" stroke-width="4" points="1930.6005,-427.6005 1785.3995,-427.6005 1785.3995,-282.3995 1930.6005,-282.3995 1930.6005,-427.6005"/>
<text text-anchor="middle" x="1858" y="-352.6" font-family="Fira Code" font-size="12.00" fill="#0c821d">entrust/entrust.js</text>
</g>
<!-- future/bimap.js&#45;&gt;entrust/entrust.js -->
<g id="edge14" class="edge">
<title>future/bimap.js&#45;&gt;entrust/entrust.js</title>
<path fill="none" stroke="#242424" d="M1866.6672,-585.8622C1865.0485,-542.7464 1862.8746,-484.8421 1861.109,-437.8114"/>
<polygon fill="#242424" stroke="#242424" points="1864.6001,-437.5062 1860.7273,-427.6445 1857.605,-437.7688 1864.6001,-437.5062"/>
</g>
<!-- future/guided.js&#45;&gt;f&#45;utility/f&#45;utility.js -->
<g id="edge19" class="edge">
<title>future/guided.js&#45;&gt;f&#45;utility/f&#45;utility.js</title>
<path fill="none" stroke="#242424" d="M1527.1811,-312.0141C1465.0604,-271.4435 1371.201,-210.1447 1300.7874,-164.1581"/>
<polygon fill="#242424" stroke="#242424" points="1302.6068,-161.166 1292.3203,-158.6283 1298.7791,-167.0268 1302.6068,-161.166"/>
</g>
<!-- future/guided.js&#45;&gt;fluture/index.js -->
<g id="edge20" class="edge">
<title>future/guided.js&#45;&gt;fluture/index.js</title>
<path fill="none" stroke="#242424" d="M1622.1343,-289.0836C1637.3062,-254.7571 1655.9261,-212.6296 1671.6699,-177.0092"/>
<polygon fill="#242424" stroke="#242424" points="1674.9758,-178.1874 1675.8172,-167.6261 1668.5733,-175.3576 1674.9758,-178.1874"/>
</g>
<!-- future/index.js -->
<g id="node16" class="node">
<title>future/index.js</title>
<polygon fill="none" stroke="#242424" stroke-width="4" points="1597,-1006.6 1473,-1006.6 1473,-882.6 1597,-882.6 1597,-1006.6"/>
<text text-anchor="middle" x="1535" y="-942.2" font-family="Fira Code" font-size="12.00" fill="#242424">future/index.js</text>
</g>
<!-- future/index.js&#45;&gt;f&#45;utility/f&#45;utility.js -->
<g id="edge21" class="edge">
<title>future/index.js&#45;&gt;f&#45;utility/f&#45;utility.js</title>
<path fill="none" stroke="#242424" d="M1472.7346,-896.7357C1440.7323,-868.8117 1403.9454,-830.9165 1382,-789.2 1275.1499,-586.0861 1352.1839,-501.3419 1284,-282.2 1275.3598,-254.4305 1263.7506,-225.1964 1252.0956,-198.5301"/>
<polygon fill="#242424" stroke="#242424" points="1255.2206,-196.9425 1247.976,-189.2116 1248.8183,-199.7729 1255.2206,-196.9425"/>
</g>
<!-- future/index.js&#45;&gt;future/guided&#45;left.js -->
<g id="edge23" class="edge">
<title>future/index.js&#45;&gt;future/guided&#45;left.js</title>
<path fill="none" stroke="#242424" d="M1570.6376,-882.4229C1594.1904,-841.3302 1625.4814,-786.7367 1651.9404,-740.5734"/>
<polygon fill="#242424" stroke="#242424" points="1655.0564,-742.1752 1656.9926,-731.7588 1648.9833,-738.6943 1655.0564,-742.1752"/>
</g>
<!-- future/index.js&#45;&gt;future/guided&#45;right.js -->
<g id="edge24" class="edge">
<title>future/index.js&#45;&gt;future/guided&#45;right.js</title>
<path fill="none" stroke="#242424" d="M1523.0509,-882.4229C1515.4332,-842.7839 1505.4012,-790.5823 1496.738,-745.5032"/>
<polygon fill="#242424" stroke="#242424" points="1500.1219,-744.5656 1494.7975,-735.4059 1493.2477,-745.8868 1500.1219,-744.5656"/>
</g>
<!-- future/index.js&#45;&gt;future/bimap.js -->
<g id="edge22" class="edge">
<title>future/index.js&#45;&gt;future/bimap.js</title>
<path fill="none" stroke="#242424" d="M1597.0699,-920.1492C1655.1133,-894.7024 1741.1516,-850.0378 1798,-789.2 1816.6877,-769.2008 1831.5922,-743.3475 1842.8243,-719.2392"/>
<polygon fill="#242424" stroke="#242424" points="1846.0252,-720.6552 1846.9495,-710.1007 1839.6451,-717.7751 1846.0252,-720.6552"/>
</g>
<!-- future/index.js&#45;&gt;future/guided.js -->
<g id="edge25" class="edge">
<title>future/index.js&#45;&gt;future/guided.js</title>
<path fill="none" stroke="#242424" d="M1553.6662,-882.4191C1561.334,-854.2258 1569.4643,-820.3029 1574,-789.2 1592.1717,-664.5911 1594.7254,-517.9167 1594.3015,-430.9059"/>
<polygon fill="#242424" stroke="#242424" points="1597.8012,-430.8339 1594.2379,-420.8563 1590.8013,-430.8782 1597.8012,-430.8339"/>
</g>
<!-- index.js -->
<g id="node17" class="node">
<title>index.js</title>
<polygon fill="none" stroke="#242424" stroke-width="4" points="1224.6011,-1376.4011 1151.3989,-1376.4011 1151.3989,-1303.1989 1224.6011,-1303.1989 1224.6011,-1376.4011"/>
<text text-anchor="middle" x="1188" y="-1337.4" font-family="Fira Code" font-size="12.00" fill="#242424">index.js</text>
</g>
<!-- index.js&#45;&gt;../package.json -->
<g id="edge27" class="edge">
<title>index.js&#45;&gt;../package.json</title>
<path fill="none" stroke="#242424" d="M1151.2161,-1338.5274C987.7855,-1332.4527 327.2124,-1303.3447 138,-1224 136.3806,-1223.3209 134.7683,-1222.5959 133.1653,-1221.8299"/>
<polygon fill="#242424" stroke="#242424" points="134.5739,-1218.6153 124.0989,-1217.0264 131.2967,-1224.8008 134.5739,-1218.6153"/>
</g>
<!-- index.js&#45;&gt;anchor.js -->
<g id="edge28" class="edge">
<title>index.js&#45;&gt;anchor.js</title>
<path fill="none" stroke="#242424" d="M1194.4294,-1302.9754C1206.8457,-1231.8608 1234.1376,-1075.5451 1248.216,-994.9105"/>
<polygon fill="#242424" stroke="#242424" points="1251.6755,-995.4453 1249.9477,-984.9923 1244.7798,-994.2412 1251.6755,-995.4453"/>
</g>
<!-- index.js&#45;&gt;f&#45;utility/f&#45;utility.js -->
<g id="edge26" class="edge">
<title>index.js&#45;&gt;f&#45;utility/f&#45;utility.js</title>
<path fill="none" stroke="#242424" d="M1151.1282,-1334.1461C966.5759,-1304.8359 152,-1163.0912 152,-944.6 152,-944.6 152,-944.6 152,-648 152,-584.6788 137.5274,-560.5509 171,-506.8 265.7571,-354.6373 342.4507,-355.5758 506,-282.2 710.0253,-190.6648 969.1718,-138.9984 1107.5167,-116.0882"/>
<polygon fill="#242424" stroke="#242424" points="1108.3717,-119.4948 1117.6732,-114.4221 1107.2385,-112.5872 1108.3717,-119.4948"/>
</g>
<!-- index.js&#45;&gt;future/index.js -->
<g id="edge29" class="edge">
<title>index.js&#45;&gt;future/index.js</title>
<path fill="none" stroke="#242424" d="M1224.6772,-1316.3695C1256.9206,-1294.7281 1304.0259,-1260.4926 1339,-1224 1400.6429,-1159.6808 1457.4874,-1074.5347 1493.9061,-1015.2131"/>
<polygon fill="#242424" stroke="#242424" points="1496.9079,-1017.013 1499.1293,-1006.6537 1490.9326,-1013.3667 1496.9079,-1017.013"/>
</g>
<!-- safety&#45;net.js -->
<g id="node18" class="node">
<title>safety&#45;net.js</title>
<polygon fill="none" stroke="#242424" stroke-width="4" points="1182.6007,-1216.6007 1073.3993,-1216.6007 1073.3993,-1107.3993 1182.6007,-1107.3993 1182.6007,-1216.6007"/>
<text text-anchor="middle" x="1128" y="-1159.6" font-family="Fira Code" font-size="12.00" fill="#242424">safety&#45;net.js</text>
</g>
<!-- index.js&#45;&gt;safety&#45;net.js -->
<g id="edge30" class="edge">
<title>index.js&#45;&gt;safety&#45;net.js</title>
<path fill="none" stroke="#242424" d="M1175.568,-1302.9597C1168.111,-1280.8623 1158.4181,-1252.139 1149.7293,-1226.3911"/>
<polygon fill="#242424" stroke="#242424" points="1152.9689,-1225.0446 1146.4551,-1216.6886 1146.3363,-1227.2828 1152.9689,-1225.0446"/>
</g>
<!-- tether.js -->
<g id="node19" class="node">
<title>tether.js</title>
<polygon fill="none" stroke="#242424" stroke-width="4" points="1471.3002,-395.3002 1390.6998,-395.3002 1390.6998,-314.6998 1471.3002,-314.6998 1471.3002,-395.3002"/>
<text text-anchor="middle" x="1431" y="-352.6" font-family="Fira Code" font-size="12.00" fill="#242424">tether.js</text>
</g>
<!-- index.js&#45;&gt;tether.js -->
<g id="edge31" class="edge">
<title>index.js&#45;&gt;tether.js</title>
<path fill="none" stroke="#242424" d="M1202.0977,-1303.0803C1210.7942,-1280.3346 1222.1343,-1250.5045 1232,-1224 1265.4996,-1134.0028 1282.4139,-1114.0883 1306,-1021 1362.7403,-797.0604 1329.4489,-731.7596 1382,-506.8 1390.0652,-472.2747 1402.3187,-434.3159 1412.5542,-404.9928"/>
<polygon fill="#242424" stroke="#242424" points="1415.9131,-405.9917 1415.939,-395.3969 1409.3117,-403.6631 1415.9131,-405.9917"/>
</g>
<!-- safety&#45;net.js&#45;&gt;anchor.js -->
<g id="edge34" class="edge">
<title>safety&#45;net.js&#45;&gt;anchor.js</title>
<path fill="none" stroke="#242424" d="M1160.5521,-1107.1408C1181.2441,-1072.2693 1207.8047,-1027.5075 1227.8122,-993.7893"/>
<polygon fill="#242424" stroke="#242424" points="1230.9171,-995.4155 1233.0101,-985.0294 1224.8971,-991.8433 1230.9171,-995.4155"/>
</g>
<!-- safety&#45;net.js&#45;&gt;f&#45;utility/f&#45;utility.js -->
<g id="edge32" class="edge">
<title>safety&#45;net.js&#45;&gt;f&#45;utility/f&#45;utility.js</title>
<path fill="none" stroke="#242424" d="M1142.7979,-1107.2843C1158.7843,-1048.261 1185.052,-951.5307 1208,-868.2 1217.6768,-833.0609 1225.0657,-825.3116 1230,-789.2 1258.5281,-580.4183 1235.8692,-332.8776 1219.0211,-199.1298"/>
<polygon fill="#242424" stroke="#242424" points="1222.4548,-198.3875 1217.7171,-188.911 1215.5111,-199.2736 1222.4548,-198.3875"/>
</g>
<!-- safety&#45;net.js&#45;&gt;assertions/reject&#45;non&#45;functions.js -->
<g id="edge37" class="edge">
<title>safety&#45;net.js&#45;&gt;assertions/reject&#45;non&#45;functions.js</title>
<path fill="none" stroke="#242424" d="M1096.4298,-1106.993C1052.9858,-1031.2974 973.2947,-892.4457 912.8988,-787.2135"/>
<polygon fill="#242424" stroke="#242424" points="915.8655,-785.3512 907.8521,-778.4203 909.7943,-788.8356 915.8655,-785.3512"/>
</g>
<!-- safety&#45;net.js&#45;&gt;errors/expect&#45;function&#45;props.js -->
<g id="edge38" class="edge">
<title>safety&#45;net.js&#45;&gt;errors/expect&#45;function&#45;props.js</title>
<path fill="none" stroke="#242424" d="M1125.1105,-1106.993C1121.0152,-1029.0298 1113.4006,-884.0699 1107.8209,-777.8493"/>
<polygon fill="#242424" stroke="#242424" points="1111.3073,-777.497 1107.2874,-767.6944 1104.3169,-777.8643 1111.3073,-777.497"/>
</g>
<!-- safety&#45;net.js&#45;&gt;assertions/all&#45;props&#45;are&#45;functions.js -->
<g id="edge35" class="edge">
<title>safety&#45;net.js&#45;&gt;assertions/all&#45;props&#45;are&#45;functions.js</title>
<path fill="none" stroke="#242424" d="M1073.1896,-1156.5235C944.1691,-1142.4142 627.2493,-1100.2559 562,-1021 512.3069,-960.6396 505.2106,-874.3897 511.6084,-800.0296"/>
<polygon fill="#242424" stroke="#242424" points="515.1358,-799.9063 512.5977,-789.62 508.1672,-799.2439 515.1358,-799.9063"/>
</g>
<!-- safety&#45;net.js&#45;&gt;assertions/judge&#45;object.js -->
<g id="edge36" class="edge">
<title>safety&#45;net.js&#45;&gt;assertions/judge&#45;object.js</title>
<path fill="none" stroke="#242424" d="M1073.2542,-1155.1713C938.981,-1137.5589 597.6066,-1087.2952 506,-1021 416.4944,-956.2254 356.1438,-843.7048 320.8512,-759.1436"/>
<polygon fill="#242424" stroke="#242424" points="324.03,-757.6709 316.9875,-749.7555 317.5568,-760.335 324.03,-757.6709"/>
</g>
<!-- safety&#45;net.js&#45;&gt;fluture/index.js -->
<g id="edge33" class="edge">
<title>safety&#45;net.js&#45;&gt;fluture/index.js</title>
<path fill="none" stroke="#242424" d="M1182.6027,-1158.1729C1339.3231,-1143.7885 1788.9827,-1077.8309 1940,-789.2 1992.2319,-689.3721 1989.7936,-383.2662 1940,-282.2 1906.8799,-214.976 1835.3838,-165.7877 1779.8969,-135.8716"/>
<polygon fill="#242424" stroke="#242424" points="1781.2645,-132.6356 1770.7882,-131.0547 1777.992,-138.8236 1781.2645,-132.6356"/>
</g>
<!-- tether.js&#45;&gt;f&#45;utility/f&#45;utility.js -->
<g id="edge41" class="edge">
<title>tether.js&#45;&gt;f&#45;utility/f&#45;utility.js</title>
<path fill="none" stroke="#242424" d="M1402.4352,-314.6462C1394.4596,-303.8975 1385.613,-292.4338 1377,-282.2 1352.9169,-253.5848 1325.5036,-223.7188 1299.7493,-196.7038"/>
<polygon fill="#242424" stroke="#242424" points="1301.976,-193.9683 1292.5334,-189.1632 1296.9185,-198.808 1301.976,-193.9683"/>
</g>
<!-- tether.js&#45;&gt;fluture/index.js -->
<g id="edge42" class="edge">
<title>tether.js&#45;&gt;fluture/index.js</title>
<path fill="none" stroke="#242424" d="M1458.1871,-314.673C1466.2997,-303.6998 1475.5601,-292.1157 1485,-282.2 1529.7465,-235.198 1586.4793,-188.8924 1631.1251,-154.9378"/>
<polygon fill="#242424" stroke="#242424" points="1633.4503,-157.5676 1639.3152,-148.7441 1629.228,-151.9844 1633.4503,-157.5676"/>
</g>
<!-- test&#45;helpers.js -->
<g id="node20" class="node">
<title>test&#45;helpers.js</title>
<polygon fill="none" stroke="#242424" stroke-width="4" points="2261,-417 2137,-417 2137,-293 2261,-293 2261,-417"/>
<text text-anchor="middle" x="2199" y="-352.6" font-family="Fira Code" font-size="12.00" fill="#242424">test&#45;helpers.js</text>
</g>
<!-- test&#45;helpers.js&#45;&gt;fluture/index.js -->
<g id="edge39" class="edge">
<title>test&#45;helpers.js&#45;&gt;fluture/index.js</title>
<path fill="none" stroke="#242424" d="M2141.7551,-292.6626C2137.2651,-288.9257 2132.6604,-285.3933 2128,-282.2 2016.8904,-206.0686 1868.5581,-151.8564 1780.2918,-123.7303"/>
<polygon fill="#242424" stroke="#242424" points="1781.2134,-120.351 1770.6236,-120.6773 1779.1056,-127.0261 1781.2134,-120.351"/>
</g>
<!-- katsu&#45;curry/katsu&#45;curry.js -->
<g id="node21" class="node">
<title>katsu&#45;curry/katsu&#45;curry.js</title>
<polygon fill="none" stroke="#0c821d" stroke-width="4" points="2300.7001,-203.3001 2097.2999,-203.3001 2097.2999,.1001 2300.7001,.1001 2300.7001,-203.3001"/>
<text text-anchor="middle" x="2199" y="-99.2" font-family="Fira Code" font-size="12.00" fill="#0c821d">katsu&#45;curry/katsu&#45;curry.js</text>
</g>
<!-- test&#45;helpers.js&#45;&gt;katsu&#45;curry/katsu&#45;curry.js -->
<g id="edge40" class="edge">
<title>test&#45;helpers.js&#45;&gt;katsu&#45;curry/katsu&#45;curry.js</title>
<path fill="none" stroke="#242424" d="M2199,-292.6868C2199,-268.9076 2199,-241.0072 2199,-213.9865"/>
<polygon fill="#242424" stroke="#242424" points="2202.5001,-213.684 2199,-203.684 2195.5001,-213.6841 2202.5001,-213.684"/>
</g>
</g>
</svg>
